<?xml version="1.0" encoding="UTF-8" standalone="no"?>
<!-- Created with Inkscape (http://www.inkscape.org/) -->

<svg
   xmlns:dc="http://purl.org/dc/elements/1.1/"
   xmlns:cc="http://creativecommons.org/ns#"
   xmlns:rdf="http://www.w3.org/1999/02/22-rdf-syntax-ns#"
   xmlns:svg="http://www.w3.org/2000/svg"
   xmlns="http://www.w3.org/2000/svg"
   xmlns:sodipodi="http://sodipodi.sourceforge.net/DTD/sodipodi-0.dtd"
   xmlns:inkscape="http://www.inkscape.org/namespaces/inkscape"
   width="174.36041mm"
   height="39.6875mm"
   viewBox="0 0 174.36041 39.6875"
   version="1.1"
   id="svg8"
   inkscape:version="0.92.5 (2060ec1f9f, 2020-04-08)"
   sodipodi:docname="webmd logo.svg">
  <defs
     id="defs2">
    <linearGradient
       gradientUnits="userSpaceOnUse"
       y2="5.112"
       x2="4.7909899"
       y1="43.007"
       x1="40.129002"
       id="paint0_linear">
      <stop
         id="stop821"
         stop-color="#515254" />
      <stop
         id="stop823"
         stop-color="#48494B"
         offset="0.192" />
      <stop
         id="stop825"
         stop-color="#313233"
         offset="0.503" />
      <stop
         id="stop827"
         stop-color="#0C0C0C"
         offset="0.893" />
      <stop
         id="stop829"
         offset="1" />
    </linearGradient>
    <style
       id="style851">.cls-1{fill:#231f20;}.cls-2{fill:#0080c5;}</style>
  </defs>
  <sodipodi:namedview
     id="base"
     pagecolor="#ffffff"
     bordercolor="#666666"
     borderopacity="1.0"
     inkscape:pageopacity="0.0"
     inkscape:pageshadow="2"
     inkscape:zoom="0.84107037"
     inkscape:cx="130.14394"
     inkscape:cy="106.65509"
     inkscape:document-units="mm"
     inkscape:current-layer="layer1"
     showgrid="false"
     fit-margin-top="0"
     fit-margin-left="0"
     fit-margin-right="0"
     fit-margin-bottom="0"
     inkscape:window-width="1920"
     inkscape:window-height="1017"
     inkscape:window-x="1912"
     inkscape:window-y="70"
     inkscape:window-maximized="1" />
  <metadata
     id="metadata5">
    <rdf:RDF>
      <cc:Work
         rdf:about="">
        <dc:format>image/svg+xml</dc:format>
        <dc:type
           rdf:resource="http://purl.org/dc/dcmitype/StillImage" />
        <dc:title></dc:title>
      </cc:Work>
    </rdf:RDF>
  </metadata>
  <g
     inkscape:label="Layer 1"
     inkscape:groupmode="layer"
     id="layer1"
     transform="translate(8.2575837,-122.52559)">
    <g
       id="g872"
       transform="matrix(1.5857274,0,0,1.5527755,-8.247843,122.57761)">
      <path
         id="path857"
         transform="translate(0,-0.24)"
         d="M 105.57,2.66 C 102.39,0.15 96.36,0.28 96.36,0.28 H 86 c -1.21,0 -1.63,0.08 -1.55,0.6 a 0.79,0.79 0 0 0 0.65,0.41 1.52,1.52 0 0 1 1.33,1.36 c 0,0.86 0.13,3.56 0.13,4.5 v 7.68 c 0,1 0,2.74 0,3.77 v 4.77 a 1.89,1.89 0 0 0 1.88,1.89 h 6.18 a 21.53,21.53 0 0 0 7.68,-1.49 12.37,12.37 0 0 0 7.61,-11.61 12,12 0 0 0 -4.34,-9.5 z M 95.11,23.07 h -0.24 c -1.44,0 -2.93,0 -3.71,-0.77 A 2.44,2.44 0 0 1 90.57,20.49 V 9 c 0,-2.37 -0.06,-3.48 0,-6.14 a 29.88,29.88 0 0 1 4.3,-0.29 c 2.73,0 5.58,0.37 8,3 a 10.09,10.09 0 0 1 2.42,7 c -0.01,6.43 -4,10.5 -10.18,10.5 z m -10.7,1.25 a 2.21,2.21 0 0 1 -1.33,-1.59 c 0,-0.45 -0.47,-20.49 -0.47,-20.49 0,-1 0,-1.79 -0.25,-1.89 A 11.8,11.8 0 0 0 80.23,0.25 3.58,3.58 0 0 0 78.49,0.42 9.27,9.27 0 0 0 77.62,2.31 L 75.79,6.38 74,9.8 71.22,15.19 a 0.91,0.91 0 0 1 -1.77,0 l -2.88,-5.31 -1.8,-3.31 -2,-4.3 A 10.93,10.93 0 0 0 61.92,0.39 5,5 0 0 0 60,0.24 h -2.46 c -1.21,0 -1.76,0 -1.68,0.52 a 0.78,0.78 0 0 0 0.65,0.41 1.69,1.69 0 0 1 1,1.58 c 0,0.45 0,18.71 -0.1,19.51 0,0.13 0,0.27 -0.07,0.41 A 1.88,1.88 0 0 1 56,24.32 0.78,0.78 0 0 0 55.35,24.73 c -0.08,0.51 0.48,0.53 1.69,0.53 h 4 c 1.21,0 1.77,0 1.7,-0.53 a 0.78,0.78 0 0 0 -0.65,-0.41 1.91,1.91 0 0 1 -1.33,-1.59 v 0 a 11.79,11.79 0 0 1 -0.19,-1.38 c 0,-1 -0.06,-2.74 -0.05,-3.77 v -0.35 c 0,-1 0,-2.74 0.06,-3.77 l 0.1,-4.09 c 0,-1 0.45,-1.14 0.94,-0.23 l 2.7,5 c 0.49,0.91 3.08,5.81 3.54,6.73 a 1.43,1.43 0 0 0 1.7,1.13 c 1.36,0 1.36,-0.36 1.92,-1.56 0.41,-0.88 6.2,-12.27 6.2,-12.27 0.47,-0.92 0.88,-0.83 0.91,0.2 0,0 0.07,13.88 0,14.51 v 0.21 a 1.79,1.79 0 0 1 -1.23,1.23 0.79,0.79 0 0 0 -0.65,0.41 c -0.08,0.51 0.48,0.53 1.69,0.53 h 5 c 1.22,0 1.77,0 1.7,-0.53 a 0.82,0.82 0 0 0 -0.69,-0.41 z"
         class="cls-1"
         inkscape:connector-curvature="0"
         style="fill:#231f20" />
      <path
         id="path859"
         transform="translate(0,-0.24)"
         d="M 30,2.79 A 3.13,3.13 0 0 1 31.08,1.22 1.27,1.27 0 0 0 32,0.71 C 32.09,0.34 31.76,0.24 30.44,0.24 h -4 c -1.21,0 -1.77,0 -1.69,0.53 A 0.79,0.79 0 0 0 25.4,1.18 C 26.55,1.5 27.32,2.09 26.96,3.29 26.6,4.49 21.6,19.2 21.6,19.2 21.41,19.73 20.92,19.88 20.77,19.09 L 18.18,6.71 C 17.96,5.71 17.72,4.39 17.63,3.82 A 1.1,1.1 0 0 0 16.52,3 1.17,1.17 0 0 0 15.43,3.67 c -0.33,0.69 -1,2 -1.46,2.95 L 7.38,19.28 C 7.11,19.75 6.77,19.61 6.72,19.05 L 5.9,6.22 c 0,-1 -0.1,-3 -0.09,-3.32 A 1.77,1.77 0 0 1 7.16,1.19 0.85,0.85 0 0 0 7.84,0.75 C 7.92,0.24 7.33,0.25 6.12,0.25 h -5 C 0.32,0.27 -0.06,0.36 0,0.78 A 0.79,0.79 0 0 0 0.65,1.19 1.75,1.75 0 0 1 1.8,2.19 5.53,5.53 0 0 1 2,2.73 V 2.83 2.9 A 0.87,0.87 0 0 0 2,3 28.72,28.72 0 0 1 2.49,6.45 l 1.09,15.68 a 12.1,12.1 0 0 0 0.35,3.19 c 0.31,0.65 1.77,0.61 2.35,-0.26 0.16,-0.25 8.39,-15.7 8.39,-15.7 0.48,-0.92 1,-0.84 1.25,0.18 l 2.58,12.73 a 20.92,20.92 0 0 0 0.67,2.8 c 0.35,0.92 2.11,0.76 2.58,-0.14 A 24.49,24.49 0 0 0 23,22.1 c 0,0 6.72,-18.5 7,-19.31 z m 21.69,6 c -3.21,0 -6.14,2.93 -8.07,5.15 a 11.32,11.32 0 0 1 0.47,-1.88 l 3,-10 A 1.33,1.33 0 0 0 45.76,0.25 h -2.53 c -1.21,0 -1.77,0 -1.7,0.53 a 0.79,0.79 0 0 0 0.65,0.41 c 1.2,0.34 1.6,1.68 1.28,3.14 0,-0.12 -3,11.88 -3,11.88 a 7.92,7.92 0 0 1 -1.89,3.15 c 0,0 -3.63,4.43 -7.29,4.43 A 2.66,2.66 0 0 1 28.36,21 11.33,11.33 0 0 1 28.64,18.33 c 3.82,-0.36 10.66,-2.12 10.66,-7 0,-2 -1.89,-2.54 -3.5,-2.54 -5.18,0 -10.29,6.32 -10.29,12 0,2.39 1.11,4.82 4.4,4.82 6.18,0 9.54,-6 9.73,-6.23 a 16.58,16.58 0 0 0 -0.3,2.41 c 0,2.61 1.9,3.82 4.25,3.82 a 10.4,10.4 0 0 0 5.23,-1.64 15.38,15.38 0 0 0 3.6,-3 12.15,12.15 0 0 0 3.35,-7.65 C 55.76,10.66 54.58,8.83 51.72,8.83 Z M 35,10 a 1.39,1.39 0 0 1 1.47,1.54 c 0,3.9 -4.32,5.61 -7.61,5.83 C 29.39,15 32.22,10 35,10 Z m 16.28,8.48 a 16.94,16.94 0 0 1 -3,4.28 6.09,6.09 0 0 1 -4.06,2 c -1.64,0 -2.18,-1.57 -2.18,-3 0,-4 4.36,-11.44 8.79,-11.44 1.64,0 2.14,1.14 2.14,2.5 a 13.69,13.69 0 0 1 -1.72,5.64 z"
         class="cls-2"
         inkscape:connector-curvature="0"
         style="fill:#0080c5" />
      <path
         id="path861"
         transform="translate(0,-0.24)"
         d="m 107.24,1.78 a 1.23,1.23 0 1 1 2.46,0 1.23,1.23 0 1 1 -2.46,0 z m 1.23,1.52 a 1.51,1.51 0 1 0 -1.54,-1.52 1.51,1.51 0 0 0 1.54,1.51 z m -0.32,-1.4 h 0.3 l 0.46,0.76 h 0.3 l -0.5,-0.77 a 0.45,0.45 0 0 0 0.45,-0.48 0.49,0.49 0 0 0 -0.62,-0.5 h -0.66 v 1.74 h 0.27 z m 0,-0.22 V 1.13 h 0.36 c 0.19,0 0.38,0 0.38,0.26 0,0.26 -0.2,0.28 -0.43,0.28 h -0.31 z"
         class="cls-1"
         inkscape:connector-curvature="0"
         style="fill:#231f20" />
    </g>
  </g>
</svg>
